<svg width="200" height="200" viewBox="0 0 200 200" fill="none" xmlns="http://www.w3.org/2000/svg">
  <circle cx="100" cy="100" r="80" fill="#E0E7FF" />
  <path d="M100 50C72.4 50 50 72.4 50 100C50 127.6 72.4 150 100 150C127.6 150 150 127.6 150 100C150 72.4 127.6 50 100 50ZM100 140C77.9 140 60 122.1 60 100C60 77.9 77.9 60 100 60C122.1 60 140 77.9 140 100C140 122.1 122.1 140 100 140Z" fill="#2563EB" />
  <path d="M100 70C83.4 70 70 83.4 70 100C70 116.6 83.4 130 100 130C116.6 130 130 116.6 130 100C130 83.4 116.6 70 100 70ZM100 120C88.9 120 80 111.1 80 100C80 88.9 88.9 80 100 80C111.1 80 120 88.9 120 100C120 111.1 111.1 120 100 120Z" fill="#3B82F6" />
  <path d="M95 85H105V115H95V85Z" fill="#2563EB" />
  <path d="M85 95H115V105H85V95Z" fill="#2563EB" />
</svg> 