<svg enable-background="new 0 0 32 32" viewBox="0 0 32 32" xmlns="http://www.w3.org/2000/svg"><g id="Guides"/><g id="_x32_0"/><g id="_x31_9"/><g id="_x31_8"/><g id="_x31_7"/><g id="_x31_6"/><g id="_x31_5"/><g id="_x31_4"/><g id="_x31_3"/><g id="_x31_2"/><g id="_x31_1"/><g id="_x31_0"/><g id="_x30_9"/><g id="_x30_8"/><g id="_x30_7"><circle cx="21" cy="21" r="3"/><path d="m4 29c0 .5522461.4477539 1 1 1s1-.4477539 1-1v-3h-2z"/><path d="m6 19v-16c0-.5522461-.4477539-1-1-1s-1 .4477539-1 1v16z"/><path d="m7 20h-4c-.5522461 0-1 .4477539-1 1v3c0 .5522461.4477539 1 1 1h4c.5522461 0 1-.4477539 1-1v-3c0-.5522461-.4477539-1-1-1z"/><path d="m10 3c0-.5522461.4477539-1 1-1s1 .4477539 1 1v3h-2z"/><path d="m12 13v16c0 .5522461-.4477539 1-1 1s-1-.4477539-1-1v-16z"/><path d="m29.6581421 19.8860474-1.8865356-.6288452c-.1660767-.6447754-.420166-1.2526855-.7515869-1.8118896l.8898926-1.7798462c.0962524-.1925049.0585327-.4249878-.093689-.5771484l-.904541-.904541c-.1521606-.1522217-.3846436-.1899414-.5771484-.093689l-1.7798462.8898926c-.5592041-.3314209-1.1671143-.5855103-1.8118896-.7515869l-.6288452-1.8865356c-.0680544-.2041628-.2590944-.3418581-.4743044-.3418581h-1.2792969c-.21521 0-.40625.1376953-.4743042.3418579l-.6288452 1.8865356c-.6447754.1660767-1.2526855.420166-1.8118896.7515869l-1.7798462-.8898926c-.1925049-.0962524-.4249878-.0585327-.5771484.093689l-.904541.904541c-.1522217.1521606-.1899414.3846436-.093689.5771484l.8898926 1.7798462c-.3314209.5592041-.5855103 1.1671143-.7515869 1.8118896l-1.2283936.409485v2.666626l1.2283936.4094849c.1660767.6447754.420166 1.2526855.7515869 1.8118896l-.8898926 1.7798462c-.0962524.1925049-.0585327.4249878.093689.5771484l.904541.904541c.1521606.1522217.3846436.1899414.5771484.093689l1.7798462-.8898926c.5592041.3314209 1.1671143.5855103 1.8118896.7515869l.6288452 1.8864746c.0680543.2041627.2590943.341919.4743043.341919h1.2792969c.21521 0 .40625-.1377563.4743042-.3419189l.6288452-1.8864746c.6447754-.1660767 1.2526855-.420166 1.8118896-.7515869l1.7798462.8898926c.1925049.0962524.4249878.0585327.5771484-.093689l.904541-.904541c.1522217-.1521606.1899414-.3846436.093689-.5771484l-.8898926-1.7798462c.3314209-.5592041.5855103-1.1671143.7515869-1.8118896l1.8865356-.6288452c.2041627-.0680544.341858-.2590944.341858-.4743044v-1.2792969c0-.2152099-.1376953-.4062499-.3418579-.4743041zm-8.6581421 5.1139526c-2.2091675 0-4-1.7908325-4-4s1.7908325-4 4-4 4 1.7908325 4 4-1.7908325 4-4 4z"/><path d="m13 12h-4c-.5522461 0-1-.4477539-1-1v-3c0-.5522461.4477539-1 1-1h4c.5522461 0 1 .4477539 1 1v3c0 .5522461-.4477539 1-1 1z"/></g><g id="_x30_6"/><g id="_x30_5"/><g id="_x30_4"/><g id="_x30_3"/><g id="_x30_2"/><g id="_x30_1"/></svg>