<svg id="Glyph" height="512" viewBox="0 0 64 64" width="512" xmlns="http://www.w3.org/2000/svg"><path d="m29.27747 28.54681c11.02366 7.60206 25.16785-3.71645 20.26124-16.12713-2.83371-7.72968-13.19606-10.80415-19.77071-6.38648-8.09735 4.97868-8.34561 17.22163-.49053 22.51361zm8.539-10.0906h-1.63175a3.44209 3.44209 0 0 1 -.18008-6.87724l-.0001-.8309a1.00106 1.00106 0 0 1 2.00211 0v.81086h2.26235a1.00125 1.00125 0 0 1 0 2.00207h-4.08428a1.44678 1.44678 0 0 0 .00006 2.89306h1.63166a3.44206 3.44206 0 0 1 .1901 6.87725l.00011.83089a1.00106 1.00106 0 1 1 -2.00211 0v-.81085h-2.2624a1.00125 1.00125 0 0 1 .00006-2.00211h4.07424a1.44662 1.44662 0 0 0 0-2.89303z"/><path d="m56.74485 29.31972a4.50433 4.50433 0 0 0 -6.50741-.16014l-6.59753 6.61751a6.49657 6.49657 0 0 1 -5.89672 9.20044l-7.72757.00886a1.00131 1.00131 0 0 1 -.00227-2.00224l7.72984-.00886a4.49012 4.49012 0 1 0 0-8.98023l-14.49643.01a5.3013 5.3013 0 0 0 -3.68418 1.54179l-5.32612 5.336 12.45418 12.47424c3.19367-.44053 12.33405-1.70193 12.33405-1.70193a5.87177 5.87177 0 0 0 3.34373-1.65189l14.34637-14.37636a4.50474 4.50474 0 0 0 .03006-6.30719z"/><path d="m13.53565 43.00529a2.15985 2.15985 0 0 0 -3.21363-.37037l-3.75423 3.76421a1.994 1.994 0 0 0 0 2.82323l10.18158 10.20164a2.02965 2.02965 0 0 0 2.84321-.01l3.75426-3.76429a2.00931 2.00931 0 0 0 0-2.81321c-1.06643-1.07301-8.71634-8.71021-9.81119-9.83121z"/></svg>