<svg width="48" height="48" viewBox="0 0 48 48" fill="none" xmlns="http://www.w3.org/2000/svg">
  <path d="M24 4C12.954 4 4 12.954 4 24C4 35.046 12.954 44 24 44C35.046 44 44 35.046 44 24C44 12.954 35.046 4 24 4Z" fill="#E0E7FF"/>
  <path d="M24 8C15.164 8 8 15.164 8 24C8 32.836 15.164 40 24 40C32.836 40 40 32.836 40 24C40 15.164 32.836 8 24 8Z" fill="#2563EB"/>
  <path d="M24 12C17.373 12 12 17.373 12 24C12 30.627 17.373 36 24 36C30.627 36 36 30.627 36 24C36 17.373 30.627 12 24 12Z" fill="#1E40AF"/>
  <path d="M24 36C30.6274 36 36 30.6274 36 24C36 17.3726 30.6274 12 24 12V36Z" fill="#1E3A8A"/>
  <path d="M30 20H26V16H22V20H18V24H22V28H26V24H30V20Z" fill="white"/>
</svg> 