<svg width="24" height="24" viewBox="0 0 24 24" fill="none" xmlns="http://www.w3.org/2000/svg">
  <path d="M12 2C6.48 2 2 6.48 2 12C2 17.52 6.48 22 12 22C17.52 22 22 17.52 22 12C22 6.48 17.52 2 12 2ZM16.64 8.8C16.49 10.38 15.84 14.22 15.51 15.99C15.37 16.74 15.09 16.99 14.83 17.02C14.25 17.07 13.81 16.64 13.25 16.27C12.37 15.69 11.87 15.33 11.02 14.77C10.03 14.12 10.67 13.76 11.24 13.18C11.39 13.03 13.95 10.7 14 10.49C14.0069 10.4476 14.0035 10.4043 13.99 10.3636C13.9764 10.3229 13.9532 10.2861 13.9225 10.2562C13.8917 10.2263 13.8543 10.2042 13.8133 10.1919C13.7723 10.1797 13.729 10.1776 13.687 10.186C13.6 10.2 12.5 10.94 10.4 12.41C10.04 12.65 9.72 12.77 9.42 12.76C9.09 12.75 8.45 12.57 7.97 12.41C7.38 12.22 6.92 12.12 6.96 11.79C6.98 11.62 7.21 11.44 7.65 11.26C9.93 10.25 11.47 9.58 12.28 9.26C14.59 8.34 15.15 8.12 15.5 8.12C15.59 8.12 15.78 8.14 15.9 8.24C16.01 8.33 16.04 8.46 16.05 8.55C16.05 8.62 16.06 8.71 16.04 8.8H16.64Z" fill="#1E293B"/>
</svg> 